<mxfile host="app.diagrams.net" modified="2022-09-08T01:22:52.306Z" agent="5.0 (Windows NT 10.0; Win64; x64) AppleWebKit/537.36 (KHTML, like Gecko) Chrome/104.0.5112.102 Safari/537.36" etag="T2b6t58WIXzmazl8eakc" version="20.3.0" type="github">
  <diagram id="7t-wTggwtP3KLNiCdbxF" name="Page-1">
    <mxGraphModel dx="569" dy="330" grid="1" gridSize="10" guides="1" tooltips="1" connect="1" arrows="1" fold="1" page="1" pageScale="1" pageWidth="850" pageHeight="1100" math="0" shadow="0">
      <root>
        <mxCell id="0" />
        <mxCell id="1" parent="0" />
        <mxCell id="nvoJxIVrH-9yneGcYSuU-7" style="edgeStyle=orthogonalEdgeStyle;rounded=0;orthogonalLoop=1;jettySize=auto;html=1;exitX=0.5;exitY=1;exitDx=0;exitDy=0;entryX=0.5;entryY=0;entryDx=0;entryDy=0;" edge="1" parent="1" source="nvoJxIVrH-9yneGcYSuU-1" target="nvoJxIVrH-9yneGcYSuU-6">
          <mxGeometry relative="1" as="geometry" />
        </mxCell>
        <mxCell id="nvoJxIVrH-9yneGcYSuU-1" value="App" style="rounded=0;whiteSpace=wrap;html=1;" vertex="1" parent="1">
          <mxGeometry x="350" y="160" width="80" height="40" as="geometry" />
        </mxCell>
        <mxCell id="nvoJxIVrH-9yneGcYSuU-3" style="edgeStyle=orthogonalEdgeStyle;rounded=0;orthogonalLoop=1;jettySize=auto;html=1;exitX=0.5;exitY=1;exitDx=0;exitDy=0;entryX=0.5;entryY=0;entryDx=0;entryDy=0;" edge="1" parent="1" source="nvoJxIVrH-9yneGcYSuU-2" target="nvoJxIVrH-9yneGcYSuU-1">
          <mxGeometry relative="1" as="geometry" />
        </mxCell>
        <mxCell id="nvoJxIVrH-9yneGcYSuU-2" value="index.js" style="rounded=0;whiteSpace=wrap;html=1;" vertex="1" parent="1">
          <mxGeometry x="350" y="70" width="80" height="40" as="geometry" />
        </mxCell>
        <mxCell id="nvoJxIVrH-9yneGcYSuU-4" value="" style="rounded=0;whiteSpace=wrap;html=1;" vertex="1" parent="1">
          <mxGeometry x="675" y="120" width="715" height="40" as="geometry" />
        </mxCell>
        <mxCell id="nvoJxIVrH-9yneGcYSuU-5" value="Navigation" style="text;html=1;align=center;verticalAlign=middle;resizable=0;points=[];autosize=1;strokeColor=none;fillColor=none;" vertex="1" parent="1">
          <mxGeometry x="675" y="90" width="80" height="30" as="geometry" />
        </mxCell>
        <mxCell id="nvoJxIVrH-9yneGcYSuU-11" style="edgeStyle=orthogonalEdgeStyle;rounded=0;orthogonalLoop=1;jettySize=auto;html=1;exitX=0.5;exitY=1;exitDx=0;exitDy=0;entryX=0.5;entryY=0;entryDx=0;entryDy=0;" edge="1" parent="1" source="nvoJxIVrH-9yneGcYSuU-6" target="nvoJxIVrH-9yneGcYSuU-8">
          <mxGeometry relative="1" as="geometry" />
        </mxCell>
        <mxCell id="nvoJxIVrH-9yneGcYSuU-12" style="edgeStyle=orthogonalEdgeStyle;rounded=0;orthogonalLoop=1;jettySize=auto;html=1;exitX=0.5;exitY=1;exitDx=0;exitDy=0;entryX=0.5;entryY=0;entryDx=0;entryDy=0;" edge="1" parent="1" source="nvoJxIVrH-9yneGcYSuU-6" target="nvoJxIVrH-9yneGcYSuU-9">
          <mxGeometry relative="1" as="geometry" />
        </mxCell>
        <mxCell id="nvoJxIVrH-9yneGcYSuU-13" style="edgeStyle=orthogonalEdgeStyle;rounded=0;orthogonalLoop=1;jettySize=auto;html=1;exitX=0.5;exitY=1;exitDx=0;exitDy=0;entryX=0.513;entryY=-0.06;entryDx=0;entryDy=0;entryPerimeter=0;" edge="1" parent="1" source="nvoJxIVrH-9yneGcYSuU-6" target="nvoJxIVrH-9yneGcYSuU-10">
          <mxGeometry relative="1" as="geometry" />
        </mxCell>
        <mxCell id="nvoJxIVrH-9yneGcYSuU-6" value="Navigation" style="rounded=0;whiteSpace=wrap;html=1;" vertex="1" parent="1">
          <mxGeometry x="350" y="230" width="80" height="40" as="geometry" />
        </mxCell>
        <mxCell id="nvoJxIVrH-9yneGcYSuU-8" value="Navigation" style="rounded=0;whiteSpace=wrap;html=1;" vertex="1" parent="1">
          <mxGeometry x="350" y="318" width="80" height="40" as="geometry" />
        </mxCell>
        <mxCell id="nvoJxIVrH-9yneGcYSuU-9" value="Navigation" style="rounded=0;whiteSpace=wrap;html=1;" vertex="1" parent="1">
          <mxGeometry x="240" y="318" width="80" height="40" as="geometry" />
        </mxCell>
        <mxCell id="nvoJxIVrH-9yneGcYSuU-10" value="Navigation" style="rounded=0;whiteSpace=wrap;html=1;" vertex="1" parent="1">
          <mxGeometry x="460" y="318" width="80" height="40" as="geometry" />
        </mxCell>
      </root>
    </mxGraphModel>
  </diagram>
</mxfile>
